<svg width="25" height="20" viewBox="0 0 25 20" fill="none" xmlns="http://www.w3.org/2000/svg">
<path fill-rule="evenodd" clip-rule="evenodd" d="M16.7375 3.77761C14.592 3.02253 13.3202 2.77935 11.1211 2.96271C10.1532 3.04341 8.89679 3.4159 7.82767 3.79911C7.30499 3.98646 6.84819 4.16856 6.52246 4.30368C6.35985 4.37114 6.23055 4.42661 6.14279 4.46483C6.09893 4.48393 6.06548 4.4987 6.0435 4.50847L6.02838 4.51522L6.01262 4.52311C5.99059 4.5342 5.95715 4.55115 5.91375 4.5735C5.82688 4.61824 5.70044 4.68442 5.54593 4.76832C5.23586 4.93671 4.81793 5.17369 4.38233 5.44966C3.94371 5.72754 3.50459 6.03403 3.14391 6.33995C2.76401 6.66216 2.55311 6.91594 2.47405 7.07404C2.12338 7.77536 2.03083 8.03975 2.00637 8.21138C1.98808 8.3397 1.99718 8.4643 2.13386 8.97075C2.20166 9.22199 2.49638 9.60153 2.94696 9.99715C2.96468 10.0127 2.98235 10.028 2.99995 10.0432L2.99995 9.90527L11.2841 9.90506C10.759 9.64575 10.4234 9.22801 10.1781 8.92262L10.1238 8.85521C9.72667 8.36476 9.53986 7.97302 9.38523 7.38269L9.36306 7.29885C9.22345 6.7737 9.02622 6.03181 9.45948 5.17155C9.67085 4.75186 10.0143 4.48249 10.3022 4.31345C10.5967 4.14049 10.9109 4.02685 11.1734 3.95103C11.4408 3.87379 11.6885 3.82626 11.8669 3.79789C11.9572 3.78354 12.0325 3.77368 12.0872 3.76723C12.1145 3.76399 12.1369 3.7616 12.1535 3.75992L12.1742 3.7579L12.1811 3.75726L12.1838 3.75703L12.1849 3.75693L12.1854 3.75689C12.1856 3.75687 12.1858 3.75685 12.2717 4.75316C12.3343 3.75512 12.3345 3.75513 12.3348 3.75515L12.3353 3.75518L12.3364 3.75525L12.3391 3.75542L12.3462 3.75591L12.3676 3.7575C12.3849 3.75885 12.4082 3.76079 12.4368 3.7635C12.4938 3.7689 12.5724 3.77737 12.6669 3.79019C12.8534 3.81552 13.1124 3.85927 13.3919 3.93376C13.666 4.00685 13.9944 4.11848 14.3018 4.29325C14.6028 4.46435 14.9611 4.74022 15.1778 5.1766C15.5944 6.01556 15.4102 6.74531 15.283 7.24889C15.2728 7.28946 15.2629 7.32857 15.2537 7.36614C15.1227 7.90376 14.9779 8.32613 14.5621 8.84863C14.2872 9.19403 13.9137 9.63678 13.3745 9.905L21.6426 9.90479L21.6426 9.96056C21.8995 9.7486 22.0933 9.545 22.1789 9.38923C22.3398 9.09652 22.4173 8.89426 22.4561 8.71353C22.4941 8.5361 22.5059 8.32781 22.4722 8.01293C22.4597 7.89693 22.3988 7.7169 22.2508 7.47739C22.1072 7.2451 21.9137 7.00803 21.7051 6.78699C21.4989 6.5684 21.2937 6.38199 21.1393 6.2499C21.0627 6.18437 21.0001 6.13351 20.9581 6.10011C20.9399 6.08561 20.9256 6.07446 20.9158 6.06692L20.9105 6.06328C20.8927 6.05123 20.8658 6.03303 20.8306 6.00937C20.76 5.96205 20.6561 5.893 20.5252 5.80778C20.263 5.63712 19.8944 5.4028 19.47 5.14896C18.6047 4.63145 17.5681 4.06993 16.7375 3.77761ZM12.2717 4.75316L12.1858 3.75685L12.26 3.75046L12.3343 3.75512L12.2717 4.75316ZM2.2116 12.6481C2.21327 12.401 2.22178 12.1745 2.23204 11.9851C2.06078 11.8593 1.84872 11.6944 1.62737 11.5C1.1484 11.0795 0.437878 10.3624 0.202938 9.49185C0.0713203 9.00415 -0.0566715 8.51188 0.0263786 7.92918C0.103256 7.38979 0.350479 6.84902 0.685221 6.17957C0.948875 5.6523 1.41195 5.18643 1.85024 4.81469C2.30775 4.42665 2.83103 4.06488 3.31197 3.76018C3.79593 3.45357 4.25472 3.19364 4.59148 3.01076C4.76039 2.91904 4.89989 2.84599 4.99811 2.79541C5.04725 2.77011 5.08615 2.75038 5.11332 2.7367L5.14512 2.72077L5.15411 2.7163L5.15681 2.71497L5.1577 2.71452L5.15804 2.71436C5.15817 2.71429 5.15829 2.71423 5.60059 3.6111C5.1882 2.70009 5.18831 2.70004 5.18843 2.69999L5.18873 2.69986L5.18954 2.69949L5.19206 2.69835L5.20059 2.69452L5.23124 2.68084C5.2576 2.66912 5.29564 2.65233 5.34432 2.63113C5.44165 2.58875 5.58171 2.52868 5.75613 2.45632C6.10448 2.31182 6.59251 2.11724 7.15283 1.9164C8.24973 1.52323 9.71204 1.07325 10.9549 0.969621C13.4988 0.757525 15.0574 1.06609 17.4015 1.89104C18.4314 2.25352 19.6109 2.90286 20.4965 3.4325C20.9476 3.70224 21.3382 3.95057 21.6164 4.13167C21.7556 4.22233 21.8671 4.29643 21.9445 4.3483C21.9832 4.37424 22.0133 4.39464 22.0342 4.40879L22.0583 4.42526L22.065 4.42981L22.0669 4.43114L22.0676 4.43157L22.0678 4.43172C22.0679 4.43178 22.068 4.43183 21.5017 5.25604C22.1013 4.45576 22.1015 4.45589 22.1016 4.45602L22.102 4.45631L22.1029 4.45699L22.1052 4.45873L22.1118 4.46372L22.1327 4.47968C22.1499 4.49292 22.1735 4.51136 22.2028 4.53463C22.2613 4.58112 22.3425 4.64723 22.4394 4.73008C22.6318 4.89473 22.8921 5.13068 23.1599 5.41451C23.4253 5.69588 23.7144 6.0413 23.9521 6.42601C24.1854 6.80351 24.4044 7.275 24.4607 7.7995C24.5106 8.26407 24.5056 8.6947 24.4116 9.13306C24.3182 9.56813 24.1483 9.95854 23.9315 10.3528C23.5972 10.9609 22.9966 11.4571 22.5906 11.7563C22.4611 11.8517 22.3375 11.9368 22.2275 12.0096V14.2575V14.3934L22.1912 14.5245L21.5931 14.3588C22.1912 14.5245 22.1912 14.5246 22.1912 14.5247L22.1911 14.525L22.1909 14.5256L22.1905 14.5273L22.1892 14.5319L22.185 14.5467L22.1704 14.5967C22.158 14.6388 22.1402 14.6977 22.1173 14.7697C22.0718 14.9131 22.0052 15.1116 21.9204 15.3334C21.7617 15.7486 21.4999 16.3524 21.1398 16.8018C20.5536 17.5335 20.0256 17.8397 19.3798 18.2142L19.3798 18.2142L19.3798 18.2142L19.3533 18.2296C18.9387 18.4701 18.4107 18.6774 18.0268 18.8155C17.8267 18.8875 17.6494 18.9463 17.5218 18.9873C17.4578 19.0079 17.4059 19.0241 17.3692 19.0354L17.3261 19.0485L17.3139 19.0522L17.3102 19.0533L17.309 19.0537L17.3086 19.0538L17.3084 19.0539C17.3083 19.0539 17.3082 19.0539 17.0238 18.0952L17.0237 19.0952H17.0235H17.0227H17.0195H17.0065H16.9556H16.759H16.0283H13.5505H7.19987H7.02842L6.86677 19.0381L7.19987 18.0952C6.86677 19.0381 6.8667 19.0381 6.86663 19.038L6.86646 19.038L6.86605 19.0378L6.86495 19.0375L6.86165 19.0363L6.85073 19.0324L6.81249 19.0185C6.78009 19.0067 6.73421 18.9898 6.67776 18.9685C6.56519 18.9259 6.4089 18.8652 6.23268 18.7918C5.89556 18.6514 5.42832 18.4414 5.06179 18.207C4.42277 17.7982 3.97464 17.4791 3.4397 16.7895C2.94261 16.1486 2.74272 15.6796 2.50723 14.9933C2.24888 14.2404 2.20715 13.3083 2.2116 12.6481ZM17.0238 18.0952L17.3082 19.0539L17.169 19.0952H17.0238V18.0952ZM21.5017 5.25604L22.068 4.43183L22.0849 4.44346L22.1013 4.45576L21.5017 5.25604ZM5.60059 3.6111L5.15829 2.71423L5.17313 2.70692L5.1882 2.70009L5.60059 3.6111ZM4.24018 11.9135L4.24076 11.9052L20.2275 11.9048V12.8058L4.21156 12.8062C4.21123 12.758 4.21123 12.7098 4.21156 12.6616C4.21356 12.3659 4.22711 12.1026 4.24018 11.9135ZM5.02001 15.5637C4.80604 15.2878 4.68589 15.0855 4.56983 14.8062L19.9779 14.8058C19.8493 15.1157 19.7078 15.3905 19.579 15.5513C19.2357 15.9797 18.9888 16.1289 18.3498 16.4996C18.0994 16.6448 17.7136 16.8027 17.3499 16.9335C17.1761 16.996 17.0212 17.0475 16.91 17.0832L16.8725 17.0952H16.759H16.0283H13.5505H7.37839C7.28198 17.0587 7.14957 17.0071 7.00164 16.9455C6.68375 16.8131 6.35137 16.6577 6.13949 16.5222C5.58501 16.1675 5.35342 15.9935 5.02001 15.5637ZM12.3978 5.77201C12.353 5.76593 12.3144 5.76142 12.2837 5.75816C12.2556 5.76184 12.2209 5.76674 12.1808 5.77311C12.0573 5.79274 11.8945 5.82451 11.7284 5.87249C11.5574 5.92189 11.4149 5.97939 11.3149 6.03809C11.2695 6.06476 11.2454 6.0842 11.2348 6.09371C11.1964 6.17653 11.1914 6.23042 11.1955 6.29881C11.2028 6.41975 11.2372 6.56008 11.32 6.87593C11.408 7.21199 11.4726 7.34285 11.6781 7.59666C11.8958 7.86548 11.9988 7.98663 12.099 8.06624C12.1587 8.11369 12.2024 8.13541 12.298 8.14231C12.4101 8.15039 12.4687 8.12913 12.5423 8.07948C12.6517 8.00567 12.7843 7.87066 12.9972 7.60324C13.168 7.38853 13.2185 7.27023 13.3106 6.89248L13.3257 6.83048L13.3258 6.83044C13.3955 6.54481 13.427 6.41569 13.4347 6.29481C13.4393 6.22336 13.4342 6.16979 13.3973 6.08881C13.3863 6.07905 13.3611 6.05908 13.3133 6.03188C13.2081 5.97205 13.0576 5.9145 12.8767 5.86628C12.7011 5.81947 12.5288 5.78979 12.3978 5.77201Z" fill="white"/>
</svg>
